# xmcd
#
# Track frame offsets: 
#        150
#        18337
#        36802
#        53158
#        76278
#        95136
#        119235
#        137218
#        158161
#        174202
#        190511
#        207209
#        233308
#
# Disc length: 3346 seconds
#
# Revision: 0
# Processed by: cddbd v1.5.2PL0 Copyright (c) Steve Scherf et al.
# Submitted via: ExactAudioCopy v0.95b4
#
DISCID=a20d100d
DTITLE=Shakyfoot - Down on the Rain
DYEAR=2009
DGENRE=Blues
TTITLE0=Goodbye Mrs. Rose
TTITLE1=Bust It Out High
TTITLE2=Down on the Rain
TTITLE3=In the Middle
TTITLE4=Live W/O A Clue
TTITLE5=She's My Lady
TTITLE6=Beat You to the Punch
TTITLE7=Preacher Man
TTITLE8=Wake Up!
TTITLE9=Worried Mind
TTITLE10=Running Cool
TTITLE11=Young Jack
TTITLE12=Zoom Baba Loom
EXTD=
EXTT0=
EXTT1=
EXTT2=
EXTT3=
EXTT4=
EXTT5=
EXTT6=
EXTT7=
EXTT8=
EXTT9=
EXTT10=
EXTT11=
EXTT12=
PLAYORDER=
